# Tiled2Unity generated file. Do not modify by hand.
# Wavefront file for 'zona2_mesh_0006.obj'

# Vertices (Count = 24)
v -9 -7 0
v -10 -7 0
v -10 -6 0
v -9 -6 0
v -12 -7 0
v -13 -7 0
v -13 -6 0
v -12 -6 0
v -9 -8 0
v -10 -8 0
v -10 -7 0
v -9 -7 0
v -12 -8 0
v -13 -8 0
v -13 -7 0
v -12 -7 0
v -9 -9 0
v -10 -9 0
v -10 -8 0
v -9 -8 0
v -12 -9 0
v -13 -9 0
v -13 -8 0
v -12 -8 0

# Texture cooridinates (Count = 8)
vt 0.15 0.96
vt 0.175 0.96
vt 0.175 1
vt 0.15 1
vt 0.15 0.92
vt 0.175 0.92
vt 0.15 0.88
vt 0.175 0.88

# Normal
vn 0 0 -1

# Mesh description
g zona2_mesh_0006

# Faces
f 1/1/1 2/2/1 3/3/1 4/4/1
f 5/1/1 6/2/1 7/3/1 8/4/1
f 9/5/1 10/6/1 11/2/1 12/1/1
f 13/5/1 14/6/1 15/2/1 16/1/1
f 17/7/1 18/8/1 19/6/1 20/5/1
f 21/7/1 22/8/1 23/6/1 24/5/1

