# Tiled2Unity generated file. Do not modify by hand.
# Wavefront file for 'zona2_mesh_0003.obj'

# Vertices (Count = 148)
v -14 -4 0
v -15 -4 0
v -15 -3 0
v -14 -3 0
v -13 -5 0
v -14 -5 0
v -14 -4 0
v -13 -4 0
v -14 -5 0
v -15 -5 0
v -15 -4 0
v -14 -4 0
v -15 -5 0
v -16 -5 0
v -16 -4 0
v -15 -4 0
v -12 -6 0
v -13 -6 0
v -13 -5 0
v -12 -5 0
v -13 -6 0
v -14 -6 0
v -14 -5 0
v -13 -5 0
v -14 -6 0
v -15 -6 0
v -15 -5 0
v -14 -5 0
v -12 -7 0
v -13 -7 0
v -13 -6 0
v -12 -6 0
v -13 -7 0
v -14 -7 0
v -14 -6 0
v -13 -6 0
v -11 -8 0
v -12 -8 0
v -12 -7 0
v -11 -7 0
v -12 -8 0
v -13 -8 0
v -13 -7 0
v -12 -7 0
v -10 -9 0
v -11 -9 0
v -11 -8 0
v -10 -8 0
v -11 -9 0
v -12 -9 0
v -12 -8 0
v -11 -8 0
v -10 -11 0
v -11 -11 0
v -11 -10 0
v -10 -10 0
v -11 -11 0
v -12 -11 0
v -12 -10 0
v -11 -10 0
v -10 -12 0
v -11 -12 0
v -11 -11 0
v -10 -11 0
v -11 -12 0
v -12 -12 0
v -12 -11 0
v -11 -11 0
v -10 -13 0
v -11 -13 0
v -11 -12 0
v -10 -12 0
v -11 -13 0
v -12 -13 0
v -12 -12 0
v -11 -12 0
v -10 -14 0
v -11 -14 0
v -11 -13 0
v -10 -13 0
v -11 -14 0
v -12 -14 0
v -12 -13 0
v -11 -13 0
v -16 -15 0
v -17 -15 0
v -17 -14 0
v -16 -14 0
v -10 -16 0
v -11 -16 0
v -11 -15 0
v -10 -15 0
v -11 -16 0
v -12 -16 0
v -12 -15 0
v -11 -15 0
v -16 -16 0
v -17 -16 0
v -17 -15 0
v -16 -15 0
v -10 -17 0
v -11 -17 0
v -11 -16 0
v -10 -16 0
v -11 -17 0
v -12 -17 0
v -12 -16 0
v -11 -16 0
v -10 -18 0
v -11 -18 0
v -11 -17 0
v -10 -17 0
v -11 -18 0
v -12 -18 0
v -12 -17 0
v -11 -17 0
v -10 -19 0
v -11 -19 0
v -11 -18 0
v -10 -18 0
v -11 -19 0
v -12 -19 0
v -12 -18 0
v -11 -18 0
v -10 -20 0
v -11 -20 0
v -11 -19 0
v -10 -19 0
v -11 -20 0
v -12 -20 0
v -12 -19 0
v -11 -19 0
v -10 -21 0
v -11 -21 0
v -11 -20 0
v -10 -20 0
v -11 -21 0
v -12 -21 0
v -12 -20 0
v -11 -20 0
v -10 -22 0
v -11 -22 0
v -11 -21 0
v -10 -21 0
v -11 -22 0
v -12 -22 0
v -12 -21 0
v -11 -21 0

# Texture cooridinates (Count = 23)
vt 0.175 0.84
vt 0.2 0.84
vt 0.2 0.88
vt 0.175 0.88
vt 0.025 0.84
vt 0.05 0.84
vt 0.05 0.88
vt 0.025 0.88
vt 0.075 0.84
vt 0.075 0.88
vt 0.025 0.76
vt 0.05 0.76
vt 0.05 0.8
vt 0.025 0.8
vt 0.075 0.76
vt 0.075 0.8
vt 0 0.88
vt 0.025 0.92
vt 0 0.92
vt 0 0.96
vt 0.025 0.96
vt 0.025 1
vt 0 1

# Normal
vn 0 0 -1

# Mesh description
g zona2_mesh_0003

# Faces
f 1/1/1 2/2/1 3/3/1 4/4/1
f 5/1/1 6/2/1 7/3/1 8/4/1
f 9/1/1 10/2/1 11/3/1 12/4/1
f 13/1/1 14/2/1 15/3/1 16/4/1
f 17/1/1 18/2/1 19/3/1 20/4/1
f 21/1/1 22/2/1 23/3/1 24/4/1
f 25/1/1 26/2/1 27/3/1 28/4/1
f 29/1/1 30/2/1 31/3/1 32/4/1
f 33/1/1 34/2/1 35/3/1 36/4/1
f 37/1/1 38/2/1 39/3/1 40/4/1
f 41/1/1 42/2/1 43/3/1 44/4/1
f 45/1/1 46/2/1 47/3/1 48/4/1
f 49/1/1 50/2/1 51/3/1 52/4/1
f 53/5/1 54/6/1 55/7/1 56/8/1
f 57/6/1 58/9/1 59/10/1 60/7/1
f 61/5/1 62/6/1 63/7/1 64/8/1
f 65/6/1 66/9/1 67/10/1 68/7/1
f 69/5/1 70/6/1 71/7/1 72/8/1
f 73/6/1 74/9/1 75/10/1 76/7/1
f 77/11/1 78/12/1 79/13/1 80/14/1
f 81/12/1 82/15/1 83/16/1 84/13/1
f 85/17/1 86/8/1 87/18/1 88/19/1
f 89/20/1 90/21/1 91/22/1 92/23/1
f 93/20/1 94/21/1 95/22/1 96/23/1
f 97/17/1 98/8/1 99/18/1 100/19/1
f 101/20/1 102/21/1 103/22/1 104/23/1
f 105/20/1 106/21/1 107/22/1 108/23/1
f 109/20/1 110/21/1 111/22/1 112/23/1
f 113/20/1 114/21/1 115/22/1 116/23/1
f 117/20/1 118/21/1 119/22/1 120/23/1
f 121/20/1 122/21/1 123/22/1 124/23/1
f 125/20/1 126/21/1 127/22/1 128/23/1
f 129/20/1 130/21/1 131/22/1 132/23/1
f 133/20/1 134/21/1 135/22/1 136/23/1
f 137/20/1 138/21/1 139/22/1 140/23/1
f 141/19/1 142/18/1 143/21/1 144/20/1
f 145/19/1 146/18/1 147/21/1 148/20/1

