# Tiled2Unity generated file. Do not modify by hand.
# Wavefront file for 'zona2_mesh_0004.obj'

# Vertices (Count = 328)
v -13 -2 0
v -14 -2 0
v -14 -1 0
v -13 -1 0
v -14 -2 0
v -15 -2 0
v -15 -1 0
v -14 -1 0
v -15 -2 0
v -16 -2 0
v -16 -1 0
v -15 -1 0
v -13 -3 0
v -14 -3 0
v -14 -2 0
v -13 -2 0
v -15 -3 0
v -16 -3 0
v -16 -2 0
v -15 -2 0
v -13 -4 0
v -14 -4 0
v -14 -3 0
v -13 -3 0
v -15 -4 0
v -16 -4 0
v -16 -3 0
v -15 -3 0
v -10 -5 0
v -11 -5 0
v -11 -4 0
v -10 -4 0
v -11 -5 0
v -12 -5 0
v -12 -4 0
v -11 -4 0
v -12 -5 0
v -13 -5 0
v -13 -4 0
v -12 -4 0
v -16 -5 0
v -17 -5 0
v -17 -4 0
v -16 -4 0
v -10 -6 0
v -11 -6 0
v -11 -5 0
v -10 -5 0
v -11 -6 0
v -12 -6 0
v -12 -5 0
v -11 -5 0
v -15 -6 0
v -16 -6 0
v -16 -5 0
v -15 -5 0
v -16 -6 0
v -17 -6 0
v -17 -5 0
v -16 -5 0
v -9 -7 0
v -10 -7 0
v -10 -6 0
v -9 -6 0
v -10 -7 0
v -11 -7 0
v -11 -6 0
v -10 -6 0
v -11 -7 0
v -12 -7 0
v -12 -6 0
v -11 -6 0
v -14 -7 0
v -15 -7 0
v -15 -6 0
v -14 -6 0
v -15 -7 0
v -16 -7 0
v -16 -6 0
v -15 -6 0
v -16 -7 0
v -17 -7 0
v -17 -6 0
v -16 -6 0
v -9 -8 0
v -10 -8 0
v -10 -7 0
v -9 -7 0
v -10 -8 0
v -11 -8 0
v -11 -7 0
v -10 -7 0
v -13 -8 0
v -14 -8 0
v -14 -7 0
v -13 -7 0
v -14 -8 0
v -15 -8 0
v -15 -7 0
v -14 -7 0
v -15 -8 0
v -16 -8 0
v -16 -7 0
v -15 -7 0
v -9 -9 0
v -10 -9 0
v -10 -8 0
v -9 -8 0
v -12 -9 0
v -13 -9 0
v -13 -8 0
v -12 -8 0
v -13 -9 0
v -14 -9 0
v -14 -8 0
v -13 -8 0
v -14 -9 0
v -15 -9 0
v -15 -8 0
v -14 -8 0
v -9 -10 0
v -10 -10 0
v -10 -9 0
v -9 -9 0
v -12 -10 0
v -13 -10 0
v -13 -9 0
v -12 -9 0
v -9 -11 0
v -10 -11 0
v -10 -10 0
v -9 -10 0
v -12 -11 0
v -13 -11 0
v -13 -10 0
v -12 -10 0
v -9 -12 0
v -10 -12 0
v -10 -11 0
v -9 -11 0
v -12 -12 0
v -13 -12 0
v -13 -11 0
v -12 -11 0
v -5 -13 0
v -6 -13 0
v -6 -12 0
v -5 -12 0
v -6 -13 0
v -7 -13 0
v -7 -12 0
v -6 -12 0
v -7 -13 0
v -8 -13 0
v -8 -12 0
v -7 -12 0
v -8 -13 0
v -9 -13 0
v -9 -12 0
v -8 -12 0
v -9 -13 0
v -10 -13 0
v -10 -12 0
v -9 -12 0
v -12 -13 0
v -13 -13 0
v -13 -12 0
v -12 -12 0
v -5 -14 0
v -6 -14 0
v -6 -13 0
v -5 -13 0
v -8 -14 0
v -9 -14 0
v -9 -13 0
v -8 -13 0
v -9 -14 0
v -10 -14 0
v -10 -13 0
v -9 -13 0
v -12 -14 0
v -13 -14 0
v -13 -13 0
v -12 -13 0
v -13 -14 0
v -14 -14 0
v -14 -13 0
v -13 -13 0
v -14 -14 0
v -15 -14 0
v -15 -13 0
v -14 -13 0
v -15 -14 0
v -16 -14 0
v -16 -13 0
v -15 -13 0
v -16 -14 0
v -17 -14 0
v -17 -13 0
v -16 -13 0
v -17 -14 0
v -18 -14 0
v -18 -13 0
v -17 -13 0
v -5 -15 0
v -6 -15 0
v -6 -14 0
v -5 -14 0
v -17 -15 0
v -18 -15 0
v -18 -14 0
v -17 -14 0
v -5 -16 0
v -6 -16 0
v -6 -15 0
v -5 -15 0
v -8 -16 0
v -9 -16 0
v -9 -15 0
v -8 -15 0
v -9 -16 0
v -10 -16 0
v -10 -15 0
v -9 -15 0
v -17 -16 0
v -18 -16 0
v -18 -15 0
v -17 -15 0
v -5 -17 0
v -6 -17 0
v -6 -16 0
v -5 -16 0
v -6 -17 0
v -7 -17 0
v -7 -16 0
v -6 -16 0
v -7 -17 0
v -8 -17 0
v -8 -16 0
v -7 -16 0
v -8 -17 0
v -9 -17 0
v -9 -16 0
v -8 -16 0
v -9 -17 0
v -10 -17 0
v -10 -16 0
v -9 -16 0
v -12 -17 0
v -13 -17 0
v -13 -16 0
v -12 -16 0
v -13 -17 0
v -14 -17 0
v -14 -16 0
v -13 -16 0
v -14 -17 0
v -15 -17 0
v -15 -16 0
v -14 -16 0
v -15 -17 0
v -16 -17 0
v -16 -16 0
v -15 -16 0
v -16 -17 0
v -17 -17 0
v -17 -16 0
v -16 -16 0
v -17 -17 0
v -18 -17 0
v -18 -16 0
v -17 -16 0
v -9 -18 0
v -10 -18 0
v -10 -17 0
v -9 -17 0
v -12 -18 0
v -13 -18 0
v -13 -17 0
v -12 -17 0
v -9 -19 0
v -10 -19 0
v -10 -18 0
v -9 -18 0
v -12 -19 0
v -13 -19 0
v -13 -18 0
v -12 -18 0
v -9 -20 0
v -10 -20 0
v -10 -19 0
v -9 -19 0
v -12 -20 0
v -13 -20 0
v -13 -19 0
v -12 -19 0
v -9 -21 0
v -10 -21 0
v -10 -20 0
v -9 -20 0
v -12 -21 0
v -13 -21 0
v -13 -20 0
v -12 -20 0
v -9 -22 0
v -10 -22 0
v -10 -21 0
v -9 -21 0
v -12 -22 0
v -13 -22 0
v -13 -21 0
v -12 -21 0
v -9 -23 0
v -10 -23 0
v -10 -22 0
v -9 -22 0
v -10 -23 0
v -11 -23 0
v -11 -22 0
v -10 -22 0
v -11 -23 0
v -12 -23 0
v -12 -22 0
v -11 -22 0
v -12 -23 0
v -13 -23 0
v -13 -22 0
v -12 -22 0

# Texture cooridinates (Count = 34)
vt 0.275 0.8
vt 0.3 0.8
vt 0.3 0.84
vt 0.275 0.84
vt 0.325 0.8
vt 0.325 0.84
vt 0.35 0.8
vt 0.35 0.84
vt 0.275 0.76
vt 0.3 0.76
vt 0.325 0.76
vt 0.35 0.76
vt 0.275 0.72
vt 0.3 0.72
vt 0.325 0.72
vt 0.35 0.72
vt 0 0.96
vt 0.025 0.96
vt 0.025 1
vt 0 1
vt 0.05 0.96
vt 0.05 1
vt 0.075 0.96
vt 0.075 1
vt 0.1 0.96
vt 0.1 1
vt 0.025 0.92
vt 0.05 0.92
vt 0.075 0.88
vt 0.1 0.88
vt 0.1 0.92
vt 0.075 0.92
vt 0.025 0.88
vt 0.05 0.88

# Normal
vn 0 0 -1

# Mesh description
g zona2_mesh_0004

# Faces
f 1/1/1 2/2/1 3/3/1 4/4/1
f 5/2/1 6/5/1 7/6/1 8/3/1
f 9/5/1 10/7/1 11/8/1 12/6/1
f 13/9/1 14/10/1 15/2/1 16/1/1
f 17/11/1 18/12/1 19/7/1 20/5/1
f 21/13/1 22/14/1 23/10/1 24/9/1
f 25/15/1 26/16/1 27/12/1 28/11/1
f 29/17/1 30/18/1 31/19/1 32/20/1
f 33/17/1 34/18/1 35/19/1 36/20/1
f 37/17/1 38/18/1 39/19/1 40/20/1
f 41/17/1 42/18/1 43/19/1 44/20/1
f 45/17/1 46/18/1 47/19/1 48/20/1
f 49/17/1 50/18/1 51/19/1 52/20/1
f 53/17/1 54/18/1 55/19/1 56/20/1
f 57/17/1 58/18/1 59/19/1 60/20/1
f 61/17/1 62/18/1 63/19/1 64/20/1
f 65/17/1 66/18/1 67/19/1 68/20/1
f 69/17/1 70/18/1 71/19/1 72/20/1
f 73/17/1 74/18/1 75/19/1 76/20/1
f 77/17/1 78/18/1 79/19/1 80/20/1
f 81/17/1 82/18/1 83/19/1 84/20/1
f 85/17/1 86/18/1 87/19/1 88/20/1
f 89/17/1 90/18/1 91/19/1 92/20/1
f 93/17/1 94/18/1 95/19/1 96/20/1
f 97/17/1 98/18/1 99/19/1 100/20/1
f 101/17/1 102/18/1 103/19/1 104/20/1
f 105/17/1 106/18/1 107/19/1 108/20/1
f 109/17/1 110/18/1 111/19/1 112/20/1
f 113/17/1 114/18/1 115/19/1 116/20/1
f 117/17/1 118/18/1 119/19/1 120/20/1
f 121/1/1 122/2/1 123/3/1 124/4/1
f 125/5/1 126/7/1 127/8/1 128/6/1
f 129/9/1 130/10/1 131/2/1 132/1/1
f 133/11/1 134/12/1 135/7/1 136/5/1
f 137/9/1 138/10/1 139/2/1 140/1/1
f 141/11/1 142/12/1 143/7/1 144/5/1
f 145/18/1 146/21/1 147/22/1 148/19/1
f 149/21/1 150/23/1 151/24/1 152/22/1
f 153/21/1 154/23/1 155/24/1 156/22/1
f 157/23/1 158/25/1 159/26/1 160/24/1
f 161/9/1 162/10/1 163/2/1 164/1/1
f 165/11/1 166/12/1 167/7/1 168/5/1
f 169/27/1 170/28/1 171/21/1 172/18/1
f 173/29/1 174/30/1 175/31/1 176/32/1
f 177/13/1 178/14/1 179/10/1 180/9/1
f 181/15/1 182/16/1 183/12/1 184/11/1
f 185/1/1 186/2/1 187/3/1 188/4/1
f 189/2/1 190/5/1 191/6/1 192/3/1
f 193/2/1 194/5/1 195/6/1 196/3/1
f 197/2/1 198/5/1 199/6/1 200/3/1
f 201/5/1 202/7/1 203/8/1 204/6/1
f 205/27/1 206/28/1 207/21/1 208/18/1
f 209/11/1 210/12/1 211/7/1 212/5/1
f 213/27/1 214/28/1 215/21/1 216/18/1
f 217/18/1 218/21/1 219/22/1 220/19/1
f 221/23/1 222/25/1 223/26/1 224/24/1
f 225/11/1 226/12/1 227/7/1 228/5/1
f 229/33/1 230/34/1 231/28/1 232/27/1
f 233/34/1 234/29/1 235/32/1 236/28/1
f 237/34/1 238/29/1 239/32/1 240/28/1
f 241/34/1 242/29/1 243/32/1 244/28/1
f 245/29/1 246/30/1 247/31/1 248/32/1
f 249/13/1 250/14/1 251/10/1 252/9/1
f 253/14/1 254/15/1 255/11/1 256/10/1
f 257/14/1 258/15/1 259/11/1 260/10/1
f 261/14/1 262/15/1 263/11/1 264/10/1
f 265/14/1 266/15/1 267/11/1 268/10/1
f 269/15/1 270/16/1 271/12/1 272/11/1
f 273/1/1 274/2/1 275/3/1 276/4/1
f 277/5/1 278/7/1 279/8/1 280/6/1
f 281/9/1 282/10/1 283/2/1 284/1/1
f 285/11/1 286/12/1 287/7/1 288/5/1
f 289/9/1 290/10/1 291/2/1 292/1/1
f 293/11/1 294/12/1 295/7/1 296/5/1
f 297/9/1 298/10/1 299/2/1 300/1/1
f 301/11/1 302/12/1 303/7/1 304/5/1
f 305/9/1 306/10/1 307/2/1 308/1/1
f 309/11/1 310/12/1 311/7/1 312/5/1
f 313/13/1 314/14/1 315/10/1 316/9/1
f 317/14/1 318/15/1 319/11/1 320/10/1
f 321/14/1 322/15/1 323/11/1 324/10/1
f 325/15/1 326/16/1 327/12/1 328/11/1

