# Tiled2Unity generated file. Do not modify by hand.
# Wavefront file for 'zona2_mesh_0004.obj'

# Vertices (Count = 28)
v -9 -5 0
v -10 -5 0
v -10 -4 0
v -9 -4 0
v -11 -5 0
v -12 -5 0
v -12 -4 0
v -11 -4 0
v -8 -6 0
v -9 -6 0
v -9 -5 0
v -8 -5 0
v -11 -6 0
v -12 -6 0
v -12 -5 0
v -11 -5 0
v -9 -7 0
v -10 -7 0
v -10 -6 0
v -9 -6 0
v -11 -7 0
v -12 -7 0
v -12 -6 0
v -11 -6 0
v -7 -10 0
v -8 -10 0
v -8 -9 0
v -7 -9 0

# Texture cooridinates (Count = 28)
vt 0.2058111 0.9013672
vt 0.2187248 0.9013672
vt 0.2187248 0.9169922
vt 0.2058111 0.9169922
vt 0.2332526 0.9013672
vt 0.2461663 0.9013672
vt 0.2461663 0.9169922
vt 0.2332526 0.9169922
vt 0.1920904 0.8847656
vt 0.205004 0.8847656
vt 0.205004 0.9003906
vt 0.1920904 0.9003906
vt 0.2332526 0.8847656
vt 0.2461663 0.8847656
vt 0.2461663 0.9003906
vt 0.2332526 0.9003906
vt 0.2058111 0.8681641
vt 0.2187248 0.8681641
vt 0.2187248 0.8837891
vt 0.2058111 0.8837891
vt 0.2332526 0.8681641
vt 0.2461663 0.8681641
vt 0.2461663 0.8837891
vt 0.2332526 0.8837891
vt 0.1783697 0.8183594
vt 0.1912833 0.8183594
vt 0.1912833 0.8339844
vt 0.1783697 0.8339844

# Normal
vn 0 0 -1

# Mesh description
g zona2_mesh_0004

# Faces
f 1/1/1 2/2/1 3/3/1 4/4/1
f 5/5/1 6/6/1 7/7/1 8/8/1
f 9/9/1 10/10/1 11/11/1 12/12/1
f 13/13/1 14/14/1 15/15/1 16/16/1
f 17/17/1 18/18/1 19/19/1 20/20/1
f 21/21/1 22/22/1 23/23/1 24/24/1
f 25/25/1 26/26/1 27/27/1 28/28/1

