# Tiled2Unity generated file. Do not modify by hand.
# Wavefront file for 'zona2_mesh_0001.obj'

# Vertices (Count = 408)
v 0 -1 0
v -1 -1 0
v -1 0 0
v 0 0 0
v -1 -1 0
v -2 -1 0
v -2 0 0
v -1 0 0
v -2 -1 0
v -3 -1 0
v -3 0 0
v -2 0 0
v -3 -1 0
v -4 -1 0
v -4 0 0
v -3 0 0
v 0 -2 0
v -1 -2 0
v -1 -1 0
v 0 -1 0
v -1 -2 0
v -2 -2 0
v -2 -1 0
v -1 -1 0
v -2 -2 0
v -3 -2 0
v -3 -1 0
v -2 -1 0
v -3 -2 0
v -4 -2 0
v -4 -1 0
v -3 -1 0
v 0 -3 0
v -1 -3 0
v -1 -2 0
v 0 -2 0
v -1 -3 0
v -2 -3 0
v -2 -2 0
v -1 -2 0
v -2 -3 0
v -3 -3 0
v -3 -2 0
v -2 -2 0
v -3 -3 0
v -4 -3 0
v -4 -2 0
v -3 -2 0
v 0 -4 0
v -1 -4 0
v -1 -3 0
v 0 -3 0
v -1 -4 0
v -2 -4 0
v -2 -3 0
v -1 -3 0
v -2 -4 0
v -3 -4 0
v -3 -3 0
v -2 -3 0
v -3 -4 0
v -4 -4 0
v -4 -3 0
v -3 -3 0
v 0 -5 0
v -1 -5 0
v -1 -4 0
v 0 -4 0
v -1 -5 0
v -2 -5 0
v -2 -4 0
v -1 -4 0
v -2 -5 0
v -3 -5 0
v -3 -4 0
v -2 -4 0
v -3 -5 0
v -4 -5 0
v -4 -4 0
v -3 -4 0
v 0 -6 0
v -1 -6 0
v -1 -5 0
v 0 -5 0
v -1 -6 0
v -2 -6 0
v -2 -5 0
v -1 -5 0
v -2 -6 0
v -3 -6 0
v -3 -5 0
v -2 -5 0
v -3 -6 0
v -4 -6 0
v -4 -5 0
v -3 -5 0
v 0 -7 0
v -1 -7 0
v -1 -6 0
v 0 -6 0
v -1 -7 0
v -2 -7 0
v -2 -6 0
v -1 -6 0
v -2 -7 0
v -3 -7 0
v -3 -6 0
v -2 -6 0
v -3 -7 0
v -4 -7 0
v -4 -6 0
v -3 -6 0
v 0 -8 0
v -1 -8 0
v -1 -7 0
v 0 -7 0
v -1 -8 0
v -2 -8 0
v -2 -7 0
v -1 -7 0
v -2 -8 0
v -3 -8 0
v -3 -7 0
v -2 -7 0
v -3 -8 0
v -4 -8 0
v -4 -7 0
v -3 -7 0
v 0 -9 0
v -1 -9 0
v -1 -8 0
v 0 -8 0
v -1 -9 0
v -2 -9 0
v -2 -8 0
v -1 -8 0
v -2 -9 0
v -3 -9 0
v -3 -8 0
v -2 -8 0
v -3 -9 0
v -4 -9 0
v -4 -8 0
v -3 -8 0
v 0 -10 0
v -1 -10 0
v -1 -9 0
v 0 -9 0
v -1 -10 0
v -2 -10 0
v -2 -9 0
v -1 -9 0
v -2 -10 0
v -3 -10 0
v -3 -9 0
v -2 -9 0
v -3 -10 0
v -4 -10 0
v -4 -9 0
v -3 -9 0
v 0 -11 0
v -1 -11 0
v -1 -10 0
v 0 -10 0
v -1 -11 0
v -2 -11 0
v -2 -10 0
v -1 -10 0
v -2 -11 0
v -3 -11 0
v -3 -10 0
v -2 -10 0
v -3 -11 0
v -4 -11 0
v -4 -10 0
v -3 -10 0
v 0 -12 0
v -1 -12 0
v -1 -11 0
v 0 -11 0
v -1 -12 0
v -2 -12 0
v -2 -11 0
v -1 -11 0
v -2 -12 0
v -3 -12 0
v -3 -11 0
v -2 -11 0
v -3 -12 0
v -4 -12 0
v -4 -11 0
v -3 -11 0
v 0 -13 0
v -1 -13 0
v -1 -12 0
v 0 -12 0
v -1 -13 0
v -2 -13 0
v -2 -12 0
v -1 -12 0
v -2 -13 0
v -3 -13 0
v -3 -12 0
v -2 -12 0
v -3 -13 0
v -4 -13 0
v -4 -12 0
v -3 -12 0
v 0 -14 0
v -1 -14 0
v -1 -13 0
v 0 -13 0
v -1 -14 0
v -2 -14 0
v -2 -13 0
v -1 -13 0
v -2 -14 0
v -3 -14 0
v -3 -13 0
v -2 -13 0
v -3 -14 0
v -4 -14 0
v -4 -13 0
v -3 -13 0
v 0 -15 0
v -1 -15 0
v -1 -14 0
v 0 -14 0
v -1 -15 0
v -2 -15 0
v -2 -14 0
v -1 -14 0
v -2 -15 0
v -3 -15 0
v -3 -14 0
v -2 -14 0
v -3 -15 0
v -4 -15 0
v -4 -14 0
v -3 -14 0
v 0 -16 0
v -1 -16 0
v -1 -15 0
v 0 -15 0
v -1 -16 0
v -2 -16 0
v -2 -15 0
v -1 -15 0
v -2 -16 0
v -3 -16 0
v -3 -15 0
v -2 -15 0
v -3 -16 0
v -4 -16 0
v -4 -15 0
v -3 -15 0
v 0 -17 0
v -1 -17 0
v -1 -16 0
v 0 -16 0
v -1 -17 0
v -2 -17 0
v -2 -16 0
v -1 -16 0
v -2 -17 0
v -3 -17 0
v -3 -16 0
v -2 -16 0
v -3 -17 0
v -4 -17 0
v -4 -16 0
v -3 -16 0
v 0 -18 0
v -1 -18 0
v -1 -17 0
v 0 -17 0
v -1 -18 0
v -2 -18 0
v -2 -17 0
v -1 -17 0
v -2 -18 0
v -3 -18 0
v -3 -17 0
v -2 -17 0
v -3 -18 0
v -4 -18 0
v -4 -17 0
v -3 -17 0
v 0 -19 0
v -1 -19 0
v -1 -18 0
v 0 -18 0
v -1 -19 0
v -2 -19 0
v -2 -18 0
v -1 -18 0
v -2 -19 0
v -3 -19 0
v -3 -18 0
v -2 -18 0
v -3 -19 0
v -4 -19 0
v -4 -18 0
v -3 -18 0
v 0 -20 0
v -1 -20 0
v -1 -19 0
v 0 -19 0
v -1 -20 0
v -2 -20 0
v -2 -19 0
v -1 -19 0
v -2 -20 0
v -3 -20 0
v -3 -19 0
v -2 -19 0
v -3 -20 0
v -4 -20 0
v -4 -19 0
v -3 -19 0
v 0 -21 0
v -1 -21 0
v -1 -20 0
v 0 -20 0
v -1 -21 0
v -2 -21 0
v -2 -20 0
v -1 -20 0
v -2 -21 0
v -3 -21 0
v -3 -20 0
v -2 -20 0
v -3 -21 0
v -4 -21 0
v -4 -20 0
v -3 -20 0
v 0 -22 0
v -1 -22 0
v -1 -21 0
v 0 -21 0
v -1 -22 0
v -2 -22 0
v -2 -21 0
v -1 -21 0
v -2 -22 0
v -3 -22 0
v -3 -21 0
v -2 -21 0
v -3 -22 0
v -4 -22 0
v -4 -21 0
v -3 -21 0
v 0 -23 0
v -1 -23 0
v -1 -22 0
v 0 -22 0
v -1 -23 0
v -2 -23 0
v -2 -22 0
v -1 -22 0
v -2 -23 0
v -3 -23 0
v -3 -22 0
v -2 -22 0
v -3 -23 0
v -4 -23 0
v -4 -22 0
v -3 -22 0
v 0 -24 0
v -1 -24 0
v -1 -23 0
v 0 -23 0
v -1 -24 0
v -2 -24 0
v -2 -23 0
v -1 -23 0
v -2 -24 0
v -3 -24 0
v -3 -23 0
v -2 -23 0
v -3 -24 0
v -4 -24 0
v -4 -23 0
v -3 -23 0
v -9 -24 0
v -10 -24 0
v -10 -23 0
v -9 -23 0
v 0 -25 0
v -1 -25 0
v -1 -24 0
v 0 -24 0
v -1 -25 0
v -2 -25 0
v -2 -24 0
v -1 -24 0
v -2 -25 0
v -3 -25 0
v -3 -24 0
v -2 -24 0
v -3 -25 0
v -4 -25 0
v -4 -24 0
v -3 -24 0
v -9 -25 0
v -10 -25 0
v -10 -24 0
v -9 -24 0

# Texture cooridinates (Count = 260)
vt 0.2606941 0.9677734
vt 0.2736078 0.9677734
vt 0.2736078 0.9833984
vt 0.2606941 0.9833984
vt 0.2744148 0.9677734
vt 0.2873285 0.9677734
vt 0.2873285 0.9833984
vt 0.2744148 0.9833984
vt 0.2881356 0.9677734
vt 0.3010492 0.9677734
vt 0.3010492 0.9833984
vt 0.2881356 0.9833984
vt 0.3018563 0.9677734
vt 0.31477 0.9677734
vt 0.31477 0.9833984
vt 0.3018563 0.9833984
vt 0.2606941 0.9511719
vt 0.2736078 0.9511719
vt 0.2736078 0.9667969
vt 0.2606941 0.9667969
vt 0.01372074 0.9013672
vt 0.02663438 0.9013672
vt 0.02663438 0.9169922
vt 0.01372074 0.9169922
vt 0.2881356 0.9511719
vt 0.3010492 0.9511719
vt 0.3010492 0.9667969
vt 0.2881356 0.9667969
vt 0.3018563 0.9511719
vt 0.31477 0.9511719
vt 0.31477 0.9667969
vt 0.3018563 0.9667969
vt 0.2881356 0.9345703
vt 0.3010492 0.9345703
vt 0.3010492 0.9501953
vt 0.2881356 0.9501953
vt 0.3018563 0.9345703
vt 0.31477 0.9345703
vt 0.31477 0.9501953
vt 0.3018563 0.9501953
vt 0.2881356 0.9179688
vt 0.3010492 0.9179688
vt 0.3010492 0.9335938
vt 0.2881356 0.9335938
vt 0.3018563 0.9179688
vt 0.31477 0.9179688
vt 0.31477 0.9335938
vt 0.3018563 0.9335938
vt 0.2881356 0.9013672
vt 0.3010492 0.9013672
vt 0.3010492 0.9169922
vt 0.2881356 0.9169922
vt 0.3018563 0.9013672
vt 0.31477 0.9013672
vt 0.31477 0.9169922
vt 0.3018563 0.9169922
vt 0.2881356 0.8847656
vt 0.3010492 0.8847656
vt 0.3010492 0.9003906
vt 0.2881356 0.9003906
vt 0.3018563 0.8847656
vt 0.31477 0.8847656
vt 0.31477 0.9003906
vt 0.3018563 0.9003906
vt 0.2881356 0.8681641
vt 0.3010492 0.8681641
vt 0.3010492 0.8837891
vt 0.2881356 0.8837891
vt 0.3018563 0.8681641
vt 0.31477 0.8681641
vt 0.31477 0.8837891
vt 0.3018563 0.8837891
vt 0.3018563 0.8515625
vt 0.31477 0.8515625
vt 0.31477 0.8671875
vt 0.3018563 0.8671875
vt 0.3018563 0.8349609
vt 0.31477 0.8349609
vt 0.31477 0.8505859
vt 0.3018563 0.8505859
vt 0.3018563 0.8183594
vt 0.31477 0.8183594
vt 0.31477 0.8339844
vt 0.3018563 0.8339844
vt 0.3018563 0.8017578
vt 0.31477 0.8017578
vt 0.31477 0.8173828
vt 0.3018563 0.8173828
vt 0.2881356 0.7851563
vt 0.3010492 0.7851563
vt 0.3010492 0.8007813
vt 0.2881356 0.8007813
vt 0.3018563 0.7851563
vt 0.31477 0.7851563
vt 0.31477 0.8007813
vt 0.3018563 0.8007813
vt 0.2881356 0.7685547
vt 0.3010492 0.7685547
vt 0.3010492 0.7841797
vt 0.2881356 0.7841797
vt 0.3018563 0.7685547
vt 0.31477 0.7685547
vt 0.31477 0.7841797
vt 0.3018563 0.7841797
vt 0.2744148 0.7519531
vt 0.2873285 0.7519531
vt 0.2873285 0.7675781
vt 0.2744148 0.7675781
vt 0.2881356 0.7519531
vt 0.3010492 0.7519531
vt 0.3010492 0.7675781
vt 0.2881356 0.7675781
vt 0.3018563 0.7519531
vt 0.31477 0.7519531
vt 0.31477 0.7675781
vt 0.3018563 0.7675781
vt 0.2744148 0.7353516
vt 0.2873285 0.7353516
vt 0.2873285 0.7509766
vt 0.2744148 0.7509766
vt 0.2881356 0.7353516
vt 0.3010492 0.7353516
vt 0.3010492 0.7509766
vt 0.2881356 0.7509766
vt 0.3018563 0.7353516
vt 0.31477 0.7353516
vt 0.31477 0.7509766
vt 0.3018563 0.7509766
vt 0.2744148 0.71875
vt 0.2873285 0.71875
vt 0.2873285 0.734375
vt 0.2744148 0.734375
vt 0.2881356 0.71875
vt 0.3010492 0.71875
vt 0.3010492 0.734375
vt 0.2881356 0.734375
vt 0.3018563 0.71875
vt 0.31477 0.71875
vt 0.31477 0.734375
vt 0.3018563 0.734375
vt 0.2744148 0.7021484
vt 0.2873285 0.7021484
vt 0.2873285 0.7177734
vt 0.2744148 0.7177734
vt 0.2881356 0.7021484
vt 0.3010492 0.7021484
vt 0.3010492 0.7177734
vt 0.2881356 0.7177734
vt 0.3018563 0.7021484
vt 0.31477 0.7021484
vt 0.31477 0.7177734
vt 0.3018563 0.7177734
vt 0.2744148 0.6855469
vt 0.2873285 0.6855469
vt 0.2873285 0.7011719
vt 0.2744148 0.7011719
vt 0.2881356 0.6855469
vt 0.3010492 0.6855469
vt 0.3010492 0.7011719
vt 0.2881356 0.7011719
vt 0.3018563 0.6855469
vt 0.31477 0.6855469
vt 0.31477 0.7011719
vt 0.3018563 0.7011719
vt 0.2606941 0.6689453
vt 0.2736078 0.6689453
vt 0.2736078 0.6845703
vt 0.2606941 0.6845703
vt 0.2744148 0.6689453
vt 0.2873285 0.6689453
vt 0.2873285 0.6845703
vt 0.2744148 0.6845703
vt 0.2881356 0.6689453
vt 0.3010492 0.6689453
vt 0.3010492 0.6845703
vt 0.2881356 0.6845703
vt 0.3018563 0.6689453
vt 0.31477 0.6689453
vt 0.31477 0.6845703
vt 0.3018563 0.6845703
vt 0.2744148 0.6523438
vt 0.2873285 0.6523438
vt 0.2873285 0.6679688
vt 0.2744148 0.6679688
vt 0.2881356 0.6523438
vt 0.3010492 0.6523438
vt 0.3010492 0.6679688
vt 0.2881356 0.6679688
vt 0.3018563 0.6523438
vt 0.31477 0.6523438
vt 0.31477 0.6679688
vt 0.3018563 0.6679688
vt 0.2744148 0.6357422
vt 0.2873285 0.6357422
vt 0.2873285 0.6513672
vt 0.2744148 0.6513672
vt 0.2881356 0.6357422
vt 0.3010492 0.6357422
vt 0.3010492 0.6513672
vt 0.2881356 0.6513672
vt 0.3018563 0.6357422
vt 0.31477 0.6357422
vt 0.31477 0.6513672
vt 0.3018563 0.6513672
vt 0.2744148 0.6191406
vt 0.2873285 0.6191406
vt 0.2873285 0.6347656
vt 0.2744148 0.6347656
vt 0.2881356 0.6191406
vt 0.3010492 0.6191406
vt 0.3010492 0.6347656
vt 0.2881356 0.6347656
vt 0.3018563 0.6191406
vt 0.31477 0.6191406
vt 0.31477 0.6347656
vt 0.3018563 0.6347656
vt 0.2744148 0.6025391
vt 0.2873285 0.6025391
vt 0.2873285 0.6181641
vt 0.2744148 0.6181641
vt 0.2881356 0.6025391
vt 0.3010492 0.6025391
vt 0.3010492 0.6181641
vt 0.2881356 0.6181641
vt 0.3018563 0.6025391
vt 0.31477 0.6025391
vt 0.31477 0.6181641
vt 0.3018563 0.6181641
vt 0.2744148 0.5859375
vt 0.2873285 0.5859375
vt 0.2873285 0.6015625
vt 0.2744148 0.6015625
vt 0.2881356 0.5859375
vt 0.3010492 0.5859375
vt 0.3010492 0.6015625
vt 0.2881356 0.6015625
vt 0.3018563 0.5859375
vt 0.31477 0.5859375
vt 0.31477 0.6015625
vt 0.3018563 0.6015625
vt 0.1234867 0.5693359
vt 0.1364003 0.5693359
vt 0.1364003 0.5849609
vt 0.1234867 0.5849609
vt 0.2606941 0.5693359
vt 0.2736078 0.5693359
vt 0.2736078 0.5849609
vt 0.2606941 0.5849609
vt 0.2744148 0.5693359
vt 0.2873285 0.5693359
vt 0.2873285 0.5849609
vt 0.2744148 0.5849609
vt 0.2881356 0.5693359
vt 0.3010492 0.5693359
vt 0.3010492 0.5849609
vt 0.2881356 0.5849609
vt 0.3018563 0.5693359
vt 0.31477 0.5693359
vt 0.31477 0.5849609
vt 0.3018563 0.5849609

# Normal
vn 0 0 -1

# Mesh description
g zona2_mesh_0001

# Faces
f 1/1/1 2/2/1 3/3/1 4/4/1
f 5/5/1 6/6/1 7/7/1 8/8/1
f 9/9/1 10/10/1 11/11/1 12/12/1
f 13/13/1 14/14/1 15/15/1 16/16/1
f 17/17/1 18/18/1 19/19/1 20/20/1
f 21/21/1 22/22/1 23/23/1 24/24/1
f 25/25/1 26/26/1 27/27/1 28/28/1
f 29/29/1 30/30/1 31/31/1 32/32/1
f 33/21/1 34/22/1 35/23/1 36/24/1
f 37/21/1 38/22/1 39/23/1 40/24/1
f 41/33/1 42/34/1 43/35/1 44/36/1
f 45/37/1 46/38/1 47/39/1 48/40/1
f 49/21/1 50/22/1 51/23/1 52/24/1
f 53/21/1 54/22/1 55/23/1 56/24/1
f 57/41/1 58/42/1 59/43/1 60/44/1
f 61/45/1 62/46/1 63/47/1 64/48/1
f 65/21/1 66/22/1 67/23/1 68/24/1
f 69/21/1 70/22/1 71/23/1 72/24/1
f 73/49/1 74/50/1 75/51/1 76/52/1
f 77/53/1 78/54/1 79/55/1 80/56/1
f 81/21/1 82/22/1 83/23/1 84/24/1
f 85/21/1 86/22/1 87/23/1 88/24/1
f 89/57/1 90/58/1 91/59/1 92/60/1
f 93/61/1 94/62/1 95/63/1 96/64/1
f 97/21/1 98/22/1 99/23/1 100/24/1
f 101/21/1 102/22/1 103/23/1 104/24/1
f 105/65/1 106/66/1 107/67/1 108/68/1
f 109/69/1 110/70/1 111/71/1 112/72/1
f 113/21/1 114/22/1 115/23/1 116/24/1
f 117/21/1 118/22/1 119/23/1 120/24/1
f 121/21/1 122/22/1 123/23/1 124/24/1
f 125/73/1 126/74/1 127/75/1 128/76/1
f 129/21/1 130/22/1 131/23/1 132/24/1
f 133/21/1 134/22/1 135/23/1 136/24/1
f 137/21/1 138/22/1 139/23/1 140/24/1
f 141/77/1 142/78/1 143/79/1 144/80/1
f 145/21/1 146/22/1 147/23/1 148/24/1
f 149/21/1 150/22/1 151/23/1 152/24/1
f 153/21/1 154/22/1 155/23/1 156/24/1
f 157/81/1 158/82/1 159/83/1 160/84/1
f 161/21/1 162/22/1 163/23/1 164/24/1
f 165/21/1 166/22/1 167/23/1 168/24/1
f 169/21/1 170/22/1 171/23/1 172/24/1
f 173/85/1 174/86/1 175/87/1 176/88/1
f 177/21/1 178/22/1 179/23/1 180/24/1
f 181/21/1 182/22/1 183/23/1 184/24/1
f 185/89/1 186/90/1 187/91/1 188/92/1
f 189/93/1 190/94/1 191/95/1 192/96/1
f 193/21/1 194/22/1 195/23/1 196/24/1
f 197/21/1 198/22/1 199/23/1 200/24/1
f 201/97/1 202/98/1 203/99/1 204/100/1
f 205/101/1 206/102/1 207/103/1 208/104/1
f 209/21/1 210/22/1 211/23/1 212/24/1
f 213/105/1 214/106/1 215/107/1 216/108/1
f 217/109/1 218/110/1 219/111/1 220/112/1
f 221/113/1 222/114/1 223/115/1 224/116/1
f 225/21/1 226/22/1 227/23/1 228/24/1
f 229/117/1 230/118/1 231/119/1 232/120/1
f 233/121/1 234/122/1 235/123/1 236/124/1
f 237/125/1 238/126/1 239/127/1 240/128/1
f 241/21/1 242/22/1 243/23/1 244/24/1
f 245/129/1 246/130/1 247/131/1 248/132/1
f 249/133/1 250/134/1 251/135/1 252/136/1
f 253/137/1 254/138/1 255/139/1 256/140/1
f 257/21/1 258/22/1 259/23/1 260/24/1
f 261/141/1 262/142/1 263/143/1 264/144/1
f 265/145/1 266/146/1 267/147/1 268/148/1
f 269/149/1 270/150/1 271/151/1 272/152/1
f 273/21/1 274/22/1 275/23/1 276/24/1
f 277/153/1 278/154/1 279/155/1 280/156/1
f 281/157/1 282/158/1 283/159/1 284/160/1
f 285/161/1 286/162/1 287/163/1 288/164/1
f 289/165/1 290/166/1 291/167/1 292/168/1
f 293/169/1 294/170/1 295/171/1 296/172/1
f 297/173/1 298/174/1 299/175/1 300/176/1
f 301/177/1 302/178/1 303/179/1 304/180/1
f 305/21/1 306/22/1 307/23/1 308/24/1
f 309/181/1 310/182/1 311/183/1 312/184/1
f 313/185/1 314/186/1 315/187/1 316/188/1
f 317/189/1 318/190/1 319/191/1 320/192/1
f 321/21/1 322/22/1 323/23/1 324/24/1
f 325/193/1 326/194/1 327/195/1 328/196/1
f 329/197/1 330/198/1 331/199/1 332/200/1
f 333/201/1 334/202/1 335/203/1 336/204/1
f 337/21/1 338/22/1 339/23/1 340/24/1
f 341/205/1 342/206/1 343/207/1 344/208/1
f 345/209/1 346/210/1 347/211/1 348/212/1
f 349/213/1 350/214/1 351/215/1 352/216/1
f 353/21/1 354/22/1 355/23/1 356/24/1
f 357/217/1 358/218/1 359/219/1 360/220/1
f 361/221/1 362/222/1 363/223/1 364/224/1
f 365/225/1 366/226/1 367/227/1 368/228/1
f 369/21/1 370/22/1 371/23/1 372/24/1
f 373/229/1 374/230/1 375/231/1 376/232/1
f 377/233/1 378/234/1 379/235/1 380/236/1
f 381/237/1 382/238/1 383/239/1 384/240/1
f 385/241/1 386/242/1 387/243/1 388/244/1
f 389/245/1 390/246/1 391/247/1 392/248/1
f 393/249/1 394/250/1 395/251/1 396/252/1
f 397/253/1 398/254/1 399/255/1 400/256/1
f 401/257/1 402/258/1 403/259/1 404/260/1
f 405/241/1 406/242/1 407/243/1 408/244/1

