# Tiled2Unity generated file. Do not modify by hand.
# Wavefront file for 'zona1_mesh_0005.obj'

# Vertices (Count = 32)
v -7 -7 0
v -8 -7 0
v -8 -6 0
v -7 -6 0
v -8 -7 0
v -9 -7 0
v -9 -6 0
v -8 -6 0
v -10 -7 0
v -11 -7 0
v -11 -6 0
v -10 -6 0
v -11 -7 0
v -12 -7 0
v -12 -6 0
v -11 -6 0
v -7 -8 0
v -8 -8 0
v -8 -7 0
v -7 -7 0
v -8 -8 0
v -9 -8 0
v -9 -7 0
v -8 -7 0
v -10 -8 0
v -11 -8 0
v -11 -7 0
v -10 -7 0
v -11 -8 0
v -12 -8 0
v -12 -7 0
v -11 -7 0

# Texture cooridinates (Count = 9)
vt 0.225 0.96
vt 0.25 0.96
vt 0.25 1
vt 0.225 1
vt 0.2 0.96
vt 0.2 1
vt 0.225 0.92
vt 0.25 0.92
vt 0.2 0.92

# Normal
vn 0 0 -1

# Mesh description
g zona1_mesh_0005

# Faces
f 1/1/1 2/2/1 3/3/1 4/4/1
f 5/5/1 6/1/1 7/4/1 8/6/1
f 9/5/1 10/1/1 11/4/1 12/6/1
f 13/1/1 14/2/1 15/3/1 16/4/1
f 17/7/1 18/8/1 19/2/1 20/1/1
f 21/9/1 22/7/1 23/1/1 24/5/1
f 25/9/1 26/7/1 27/1/1 28/5/1
f 29/7/1 30/8/1 31/2/1 32/1/1

