# Tiled2Unity generated file. Do not modify by hand.
# Wavefront file for 'zona1_mesh_0006.obj'

# Vertices (Count = 28)
v -17 -6 0
v -18 -6 0
v -18 -5 0
v -17 -5 0
v -18 -6 0
v -19 -6 0
v -19 -5 0
v -18 -5 0
v -19 -6 0
v -20 -6 0
v -20 -5 0
v -19 -5 0
v -17 -7 0
v -18 -7 0
v -18 -6 0
v -17 -6 0
v -18 -7 0
v -19 -7 0
v -19 -6 0
v -18 -6 0
v -19 -7 0
v -20 -7 0
v -20 -6 0
v -19 -6 0
v -8 -26 0
v -9 -26 0
v -9 -25 0
v -8 -25 0

# Texture cooridinates (Count = 28)
vt 0.2033898 0.5097656
vt 0.2163035 0.5097656
vt 0.2163035 0.5253906
vt 0.2033898 0.5253906
vt 0.2179177 0.5097656
vt 0.2308313 0.5097656
vt 0.2308313 0.5253906
vt 0.2179177 0.5253906
vt 0.2324455 0.5097656
vt 0.2453592 0.5097656
vt 0.2453592 0.5253906
vt 0.2324455 0.5253906
vt 0.2033898 0.4921875
vt 0.2163035 0.4921875
vt 0.2163035 0.5078125
vt 0.2033898 0.5078125
vt 0.2179177 0.4921875
vt 0.2308313 0.4921875
vt 0.2308313 0.5078125
vt 0.2179177 0.5078125
vt 0.2324455 0.4921875
vt 0.2453592 0.4921875
vt 0.2453592 0.5078125
vt 0.2324455 0.5078125
vt 0.07263923 0.1582031
vt 0.08555286 0.1582031
vt 0.08555286 0.1738281
vt 0.07263923 0.1738281

# Normal
vn 0 0 -1

# Mesh description
g zona1_mesh_0006

# Faces
f 1/1/1 2/2/1 3/3/1 4/4/1
f 5/5/1 6/6/1 7/7/1 8/8/1
f 9/9/1 10/10/1 11/11/1 12/12/1
f 13/13/1 14/14/1 15/15/1 16/16/1
f 17/17/1 18/18/1 19/19/1 20/20/1
f 21/21/1 22/22/1 23/23/1 24/24/1
f 25/25/1 26/26/1 27/27/1 28/28/1

