# Tiled2Unity generated file. Do not modify by hand.
# Wavefront file for 'zona1_mesh_0003.obj'

# Vertices (Count = 36)
v -17 -13 0
v -18 -13 0
v -18 -12 0
v -17 -12 0
v -18 -13 0
v -19 -13 0
v -19 -12 0
v -18 -12 0
v -14 -14 0
v -15 -14 0
v -15 -13 0
v -14 -13 0
v -17 -22 0
v -18 -22 0
v -18 -21 0
v -17 -21 0
v -14 -31 0
v -15 -31 0
v -15 -30 0
v -14 -30 0
v -14 -32 0
v -15 -32 0
v -15 -31 0
v -14 -31 0
v -14 -33 0
v -15 -33 0
v -15 -32 0
v -14 -32 0
v -14 -34 0
v -15 -34 0
v -15 -33 0
v -14 -33 0
v -14 -35 0
v -15 -35 0
v -15 -34 0
v -14 -34 0

# Texture cooridinates (Count = 36)
vt 0.2033898 0.3867188
vt 0.2163035 0.3867188
vt 0.2163035 0.4023438
vt 0.2033898 0.4023438
vt 0.2179177 0.3867188
vt 0.2308313 0.3867188
vt 0.2308313 0.4023438
vt 0.2179177 0.4023438
vt 0.1598063 0.3691406
vt 0.1727199 0.3691406
vt 0.1727199 0.3847656
vt 0.1598063 0.3847656
vt 0.2033898 0.2285156
vt 0.2163035 0.2285156
vt 0.2163035 0.2441406
vt 0.2033898 0.2441406
vt 0.1598063 0.1054688
vt 0.1727199 0.1054688
vt 0.1727199 0.1210938
vt 0.1598063 0.1210938
vt 0.1598063 0.08789063
vt 0.1727199 0.08789063
vt 0.1727199 0.1035156
vt 0.1598063 0.1035156
vt 0.1598063 0.0703125
vt 0.1727199 0.0703125
vt 0.1727199 0.0859375
vt 0.1598063 0.0859375
vt 0.1598063 0.05273438
vt 0.1727199 0.05273438
vt 0.1727199 0.06835938
vt 0.1598063 0.06835938
vt 0.1598063 0.03515625
vt 0.1727199 0.03515625
vt 0.1727199 0.05078125
vt 0.1598063 0.05078125

# Normal
vn 0 0 -1

# Mesh description
g zona1_mesh_0003

# Faces
f 1/1/1 2/2/1 3/3/1 4/4/1
f 5/5/1 6/6/1 7/7/1 8/8/1
f 9/9/1 10/10/1 11/11/1 12/12/1
f 13/13/1 14/14/1 15/15/1 16/16/1
f 17/17/1 18/18/1 19/19/1 20/20/1
f 21/21/1 22/22/1 23/23/1 24/24/1
f 25/25/1 26/26/1 27/27/1 28/28/1
f 29/29/1 30/30/1 31/31/1 32/32/1
f 33/33/1 34/34/1 35/35/1 36/36/1

