# Tiled2Unity generated file. Do not modify by hand.
# Wavefront file for 'zona1_mesh_0002.obj'

# Vertices (Count = 300)
v -17 -9 0
v -18 -9 0
v -18 -8 0
v -17 -8 0
v -18 -9 0
v -19 -9 0
v -19 -8 0
v -18 -8 0
v -17 -10 0
v -18 -10 0
v -18 -9 0
v -17 -9 0
v -18 -10 0
v -19 -10 0
v -19 -9 0
v -18 -9 0
v -16 -11 0
v -17 -11 0
v -17 -10 0
v -16 -10 0
v -17 -11 0
v -18 -11 0
v -18 -10 0
v -17 -10 0
v -18 -11 0
v -19 -11 0
v -19 -10 0
v -18 -10 0
v -16 -12 0
v -17 -12 0
v -17 -11 0
v -16 -11 0
v -17 -12 0
v -18 -12 0
v -18 -11 0
v -17 -11 0
v -18 -12 0
v -19 -12 0
v -19 -11 0
v -18 -11 0
v -14 -13 0
v -15 -13 0
v -15 -12 0
v -14 -12 0
v -15 -13 0
v -16 -13 0
v -16 -12 0
v -15 -12 0
v -16 -13 0
v -17 -13 0
v -17 -12 0
v -16 -12 0
v -17 -13 0
v -18 -13 0
v -18 -12 0
v -17 -12 0
v -18 -13 0
v -19 -13 0
v -19 -12 0
v -18 -12 0
v -14 -14 0
v -15 -14 0
v -15 -13 0
v -14 -13 0
v -15 -14 0
v -16 -14 0
v -16 -13 0
v -15 -13 0
v -16 -14 0
v -17 -14 0
v -17 -13 0
v -16 -13 0
v -14 -15 0
v -15 -15 0
v -15 -14 0
v -14 -14 0
v -15 -15 0
v -16 -15 0
v -16 -14 0
v -15 -14 0
v -14 -16 0
v -15 -16 0
v -15 -15 0
v -14 -15 0
v -14 -17 0
v -15 -17 0
v -15 -16 0
v -14 -16 0
v -14 -18 0
v -15 -18 0
v -15 -17 0
v -14 -17 0
v -14 -19 0
v -15 -19 0
v -15 -18 0
v -14 -18 0
v -14 -20 0
v -15 -20 0
v -15 -19 0
v -14 -19 0
v -15 -20 0
v -16 -20 0
v -16 -19 0
v -15 -19 0
v -13 -21 0
v -14 -21 0
v -14 -20 0
v -13 -20 0
v -14 -21 0
v -15 -21 0
v -15 -20 0
v -14 -20 0
v -15 -21 0
v -16 -21 0
v -16 -20 0
v -15 -20 0
v -16 -21 0
v -17 -21 0
v -17 -20 0
v -16 -20 0
v -13 -22 0
v -14 -22 0
v -14 -21 0
v -13 -21 0
v -14 -22 0
v -15 -22 0
v -15 -21 0
v -14 -21 0
v -15 -22 0
v -16 -22 0
v -16 -21 0
v -15 -21 0
v -16 -22 0
v -17 -22 0
v -17 -21 0
v -16 -21 0
v -17 -22 0
v -18 -22 0
v -18 -21 0
v -17 -21 0
v -8 -23 0
v -9 -23 0
v -9 -22 0
v -8 -22 0
v -9 -23 0
v -10 -23 0
v -10 -22 0
v -9 -22 0
v -10 -23 0
v -11 -23 0
v -11 -22 0
v -10 -22 0
v -11 -23 0
v -12 -23 0
v -12 -22 0
v -11 -22 0
v -12 -23 0
v -13 -23 0
v -13 -22 0
v -12 -22 0
v -13 -23 0
v -14 -23 0
v -14 -22 0
v -13 -22 0
v -14 -23 0
v -15 -23 0
v -15 -22 0
v -14 -22 0
v -15 -23 0
v -16 -23 0
v -16 -22 0
v -15 -22 0
v -16 -23 0
v -17 -23 0
v -17 -22 0
v -16 -22 0
v -8 -24 0
v -9 -24 0
v -9 -23 0
v -8 -23 0
v -9 -24 0
v -10 -24 0
v -10 -23 0
v -9 -23 0
v -10 -24 0
v -11 -24 0
v -11 -23 0
v -10 -23 0
v -11 -24 0
v -12 -24 0
v -12 -23 0
v -11 -23 0
v -12 -24 0
v -13 -24 0
v -13 -23 0
v -12 -23 0
v -13 -24 0
v -14 -24 0
v -14 -23 0
v -13 -23 0
v -14 -24 0
v -15 -24 0
v -15 -23 0
v -14 -23 0
v -15 -24 0
v -16 -24 0
v -16 -23 0
v -15 -23 0
v -16 -24 0
v -17 -24 0
v -17 -23 0
v -16 -23 0
v -8 -25 0
v -9 -25 0
v -9 -24 0
v -8 -24 0
v -9 -25 0
v -10 -25 0
v -10 -24 0
v -9 -24 0
v -10 -25 0
v -11 -25 0
v -11 -24 0
v -10 -24 0
v -14 -25 0
v -15 -25 0
v -15 -24 0
v -14 -24 0
v -15 -25 0
v -16 -25 0
v -16 -24 0
v -15 -24 0
v -16 -25 0
v -17 -25 0
v -17 -24 0
v -16 -24 0
v -8 -26 0
v -9 -26 0
v -9 -25 0
v -8 -25 0
v -9 -26 0
v -10 -26 0
v -10 -25 0
v -9 -25 0
v -10 -26 0
v -11 -26 0
v -11 -25 0
v -10 -25 0
v -14 -26 0
v -15 -26 0
v -15 -25 0
v -14 -25 0
v -14 -27 0
v -15 -27 0
v -15 -26 0
v -14 -26 0
v -14 -28 0
v -15 -28 0
v -15 -27 0
v -14 -27 0
v -14 -29 0
v -15 -29 0
v -15 -28 0
v -14 -28 0
v -14 -30 0
v -15 -30 0
v -15 -29 0
v -14 -29 0
v -14 -31 0
v -15 -31 0
v -15 -30 0
v -14 -30 0
v -14 -32 0
v -15 -32 0
v -15 -31 0
v -14 -31 0
v -14 -33 0
v -15 -33 0
v -15 -32 0
v -14 -32 0
v -14 -34 0
v -15 -34 0
v -15 -33 0
v -14 -33 0
v -13 -35 0
v -14 -35 0
v -14 -34 0
v -13 -34 0
v -14 -35 0
v -15 -35 0
v -15 -34 0
v -14 -34 0
v -15 -35 0
v -16 -35 0
v -16 -34 0
v -15 -34 0
v -14 -36 0
v -15 -36 0
v -15 -35 0
v -14 -35 0

# Texture cooridinates (Count = 160)
vt 0.2033898 0.4570313
vt 0.2163035 0.4570313
vt 0.2163035 0.4726563
vt 0.2033898 0.4726563
vt 0.2179177 0.4570313
vt 0.2308313 0.4570313
vt 0.2308313 0.4726563
vt 0.2179177 0.4726563
vt 0.2033898 0.4394531
vt 0.2163035 0.4394531
vt 0.2163035 0.4550781
vt 0.2033898 0.4550781
vt 0.2179177 0.4394531
vt 0.2308313 0.4394531
vt 0.2308313 0.4550781
vt 0.2179177 0.4550781
vt 0.188862 0.4042969
vt 0.2017756 0.4042969
vt 0.2017756 0.4199219
vt 0.188862 0.4199219
vt 0.2033898 0.421875
vt 0.2163035 0.421875
vt 0.2163035 0.4375
vt 0.2033898 0.4375
vt 0.2179177 0.421875
vt 0.2308313 0.421875
vt 0.2308313 0.4375
vt 0.2179177 0.4375
vt 0.188862 0.3867188
vt 0.2017756 0.3867188
vt 0.2017756 0.4023438
vt 0.188862 0.4023438
vt 0.2033898 0.4042969
vt 0.2163035 0.4042969
vt 0.2163035 0.4199219
vt 0.2033898 0.4199219
vt 0.2179177 0.4042969
vt 0.2308313 0.4042969
vt 0.2308313 0.4199219
vt 0.2179177 0.4199219
vt 0.1598063 0.3867188
vt 0.1727199 0.3867188
vt 0.1727199 0.4023438
vt 0.1598063 0.4023438
vt 0.1743341 0.3867188
vt 0.1872478 0.3867188
vt 0.1872478 0.4023438
vt 0.1743341 0.4023438
vt 0.1598063 0.28125
vt 0.1727199 0.28125
vt 0.1727199 0.296875
vt 0.1598063 0.296875
vt 0.1743341 0.3691406
vt 0.1872478 0.3691406
vt 0.1872478 0.3847656
vt 0.1743341 0.3847656
vt 0.188862 0.3691406
vt 0.2017756 0.3691406
vt 0.2017756 0.3847656
vt 0.188862 0.3847656
vt 0.1598063 0.01757813
vt 0.1727199 0.01757813
vt 0.1727199 0.03320313
vt 0.1598063 0.03320313
vt 0.1598063 0.3164063
vt 0.1727199 0.3164063
vt 0.1727199 0.3320313
vt 0.1598063 0.3320313
vt 0.1598063 0.2988281
vt 0.1727199 0.2988281
vt 0.1727199 0.3144531
vt 0.1598063 0.3144531
vt 0.1598063 0.2636719
vt 0.1727199 0.2636719
vt 0.1727199 0.2792969
vt 0.1598063 0.2792969
vt 0.1743341 0.2636719
vt 0.1872478 0.2636719
vt 0.1872478 0.2792969
vt 0.1743341 0.2792969
vt 0.1452785 0.2460938
vt 0.1581921 0.2460938
vt 0.1581921 0.2617188
vt 0.1452785 0.2617188
vt 0.1598063 0.2460938
vt 0.1727199 0.2460938
vt 0.1727199 0.2617188
vt 0.1598063 0.2617188
vt 0.1743341 0.2460938
vt 0.1872478 0.2460938
vt 0.1872478 0.2617188
vt 0.1743341 0.2617188
vt 0.188862 0.2460938
vt 0.2017756 0.2460938
vt 0.2017756 0.2617188
vt 0.188862 0.2617188
vt 0.1452785 0.2285156
vt 0.1581921 0.2285156
vt 0.1581921 0.2441406
vt 0.1452785 0.2441406
vt 0.1598063 0.2285156
vt 0.1727199 0.2285156
vt 0.1727199 0.2441406
vt 0.1598063 0.2441406
vt 0.1743341 0.2285156
vt 0.1872478 0.2285156
vt 0.1872478 0.2441406
vt 0.1743341 0.2441406
vt 0.188862 0.2285156
vt 0.2017756 0.2285156
vt 0.2017756 0.2441406
vt 0.188862 0.2441406
vt 0.08716707 0.2109375
vt 0.1000807 0.2109375
vt 0.1000807 0.2265625
vt 0.08716707 0.2265625
vt 0.08716707 0.1933594
vt 0.1000807 0.1933594
vt 0.1000807 0.2089844
vt 0.08716707 0.2089844
vt 0.1452785 0.2109375
vt 0.1581921 0.2109375
vt 0.1581921 0.2265625
vt 0.1452785 0.2265625
vt 0.1598063 0.2109375
vt 0.1727199 0.2109375
vt 0.1727199 0.2265625
vt 0.1598063 0.2265625
vt 0.1743341 0.2109375
vt 0.1872478 0.2109375
vt 0.1872478 0.2265625
vt 0.1743341 0.2265625
vt 0.1452785 0.1933594
vt 0.1581921 0.1933594
vt 0.1581921 0.2089844
vt 0.1452785 0.2089844
vt 0.1598063 0.1933594
vt 0.1727199 0.1933594
vt 0.1727199 0.2089844
vt 0.1598063 0.2089844
vt 0.1743341 0.1933594
vt 0.1872478 0.1933594
vt 0.1872478 0.2089844
vt 0.1743341 0.2089844
vt 0.1598063 0.05273438
vt 0.1727199 0.05273438
vt 0.1727199 0.06835938
vt 0.1598063 0.06835938
vt 0.1452785 0.03515625
vt 0.1581921 0.03515625
vt 0.1581921 0.05078125
vt 0.1452785 0.05078125
vt 0.1598063 0.03515625
vt 0.1727199 0.03515625
vt 0.1727199 0.05078125
vt 0.1598063 0.05078125
vt 0.1743341 0.03515625
vt 0.1872478 0.03515625
vt 0.1872478 0.05078125
vt 0.1743341 0.05078125

# Normal
vn 0 0 -1

# Mesh description
g zona1_mesh_0002

# Faces
f 1/1/1 2/2/1 3/3/1 4/4/1
f 5/5/1 6/6/1 7/7/1 8/8/1
f 9/9/1 10/10/1 11/11/1 12/12/1
f 13/13/1 14/14/1 15/15/1 16/16/1
f 17/17/1 18/18/1 19/19/1 20/20/1
f 21/21/1 22/22/1 23/23/1 24/24/1
f 25/25/1 26/26/1 27/27/1 28/28/1
f 29/29/1 30/30/1 31/31/1 32/32/1
f 33/33/1 34/34/1 35/35/1 36/36/1
f 37/37/1 38/38/1 39/39/1 40/40/1
f 41/41/1 42/42/1 43/43/1 44/44/1
f 45/45/1 46/46/1 47/47/1 48/48/1
f 49/29/1 50/30/1 51/31/1 52/32/1
f 53/25/1 54/26/1 55/27/1 56/28/1
f 57/25/1 58/26/1 59/27/1 60/28/1
f 61/49/1 62/50/1 63/51/1 64/52/1
f 65/53/1 66/54/1 67/55/1 68/56/1
f 69/57/1 70/58/1 71/59/1 72/60/1
f 73/49/1 74/50/1 75/51/1 76/52/1
f 77/61/1 78/62/1 79/63/1 80/64/1
f 81/49/1 82/50/1 83/51/1 84/52/1
f 85/65/1 86/66/1 87/67/1 88/68/1
f 89/69/1 90/70/1 91/71/1 92/72/1
f 93/49/1 94/50/1 95/51/1 96/52/1
f 97/73/1 98/74/1 99/75/1 100/76/1
f 101/77/1 102/78/1 103/79/1 104/80/1
f 105/81/1 106/82/1 107/83/1 108/84/1
f 109/85/1 110/86/1 111/87/1 112/88/1
f 113/89/1 114/90/1 115/91/1 116/92/1
f 117/93/1 118/94/1 119/95/1 120/96/1
f 121/97/1 122/98/1 123/99/1 124/100/1
f 125/101/1 126/102/1 127/103/1 128/104/1
f 129/105/1 130/106/1 131/107/1 132/108/1
f 133/109/1 134/110/1 135/111/1 136/112/1
f 137/105/1 138/106/1 139/107/1 140/108/1
f 141/113/1 142/114/1 143/115/1 144/116/1
f 145/113/1 146/114/1 147/115/1 148/116/1
f 149/113/1 150/114/1 151/115/1 152/116/1
f 153/113/1 154/114/1 155/115/1 156/116/1
f 157/117/1 158/118/1 159/119/1 160/120/1
f 161/121/1 162/122/1 163/123/1 164/124/1
f 165/125/1 166/126/1 167/127/1 168/128/1
f 169/129/1 170/130/1 171/131/1 172/132/1
f 173/129/1 174/130/1 175/131/1 176/132/1
f 177/113/1 178/114/1 179/115/1 180/116/1
f 181/113/1 182/114/1 183/115/1 184/116/1
f 185/113/1 186/114/1 187/115/1 188/116/1
f 189/113/1 190/114/1 191/115/1 192/116/1
f 193/113/1 194/114/1 195/115/1 196/116/1
f 197/133/1 198/134/1 199/135/1 200/136/1
f 201/137/1 202/138/1 203/139/1 204/140/1
f 205/141/1 206/142/1 207/143/1 208/144/1
f 209/141/1 210/142/1 211/143/1 212/144/1
f 213/113/1 214/114/1 215/115/1 216/116/1
f 217/113/1 218/114/1 219/115/1 220/116/1
f 221/113/1 222/114/1 223/115/1 224/116/1
f 225/137/1 226/138/1 227/139/1 228/140/1
f 229/117/1 230/118/1 231/119/1 232/120/1
f 233/117/1 234/118/1 235/119/1 236/120/1
f 237/113/1 238/114/1 239/115/1 240/116/1
f 241/113/1 242/114/1 243/115/1 244/116/1
f 245/113/1 246/114/1 247/115/1 248/116/1
f 249/137/1 250/138/1 251/139/1 252/140/1
f 253/145/1 254/146/1 255/147/1 256/148/1
f 257/145/1 258/146/1 259/147/1 260/148/1
f 261/145/1 262/146/1 263/147/1 264/148/1
f 265/145/1 266/146/1 267/147/1 268/148/1
f 269/145/1 270/146/1 271/147/1 272/148/1
f 273/145/1 274/146/1 275/147/1 276/148/1
f 277/145/1 278/146/1 279/147/1 280/148/1
f 281/145/1 282/146/1 283/147/1 284/148/1
f 285/149/1 286/150/1 287/151/1 288/152/1
f 289/153/1 290/154/1 291/155/1 292/156/1
f 293/157/1 294/158/1 295/159/1 296/160/1
f 297/61/1 298/62/1 299/63/1 300/64/1

