# Tiled2Unity generated file. Do not modify by hand.
# Wavefront file for 'zona1_mesh_0008.obj'

# Vertices (Count = 68)
v -11 -23 0
v -12 -23 0
v -12 -22 0
v -11 -22 0
v -12 -23 0
v -13 -23 0
v -13 -22 0
v -12 -22 0
v -11 -24 0
v -12 -24 0
v -12 -23 0
v -11 -23 0
v -12 -24 0
v -13 -24 0
v -13 -23 0
v -12 -23 0
v -8 -25 0
v -9 -25 0
v -9 -24 0
v -8 -24 0
v -9 -25 0
v -10 -25 0
v -10 -24 0
v -9 -24 0
v -10 -25 0
v -11 -25 0
v -11 -24 0
v -10 -24 0
v -11 -25 0
v -12 -25 0
v -12 -24 0
v -11 -24 0
v -12 -25 0
v -13 -25 0
v -13 -24 0
v -12 -24 0
v -9 -26 0
v -10 -26 0
v -10 -25 0
v -9 -25 0
v -10 -26 0
v -11 -26 0
v -11 -25 0
v -10 -25 0
v -13 -27 0
v -14 -27 0
v -14 -26 0
v -13 -26 0
v -14 -27 0
v -15 -27 0
v -15 -26 0
v -14 -26 0
v -13 -28 0
v -14 -28 0
v -14 -27 0
v -13 -27 0
v -14 -28 0
v -15 -28 0
v -15 -27 0
v -14 -27 0
v -13 -29 0
v -14 -29 0
v -14 -28 0
v -13 -28 0
v -14 -29 0
v -15 -29 0
v -15 -28 0
v -14 -28 0

# Texture cooridinates (Count = 30)
vt 0.12 0.8979592
vt 0.14 0.8979592
vt 0.14 0.9183673
vt 0.12 0.9183673
vt 0.16 0.8979592
vt 0.18 0.8979592
vt 0.18 0.9183673
vt 0.16 0.9183673
vt 0.22 0.9387755
vt 0.24 0.9387755
vt 0.24 0.9591837
vt 0.22 0.9591837
vt 0.26 0.9387755
vt 0.26 0.9591837
vt 0.18 0.6938776
vt 0.2 0.6938776
vt 0.2 0.7142857
vt 0.18 0.7142857
vt 0.36 0.9795918
vt 0.38 0.9795918
vt 0.38 1
vt 0.36 1
vt 0.3 0.755102
vt 0.32 0.755102
vt 0.32 0.7755102
vt 0.3 0.7755102
vt 0.08 0.8979592
vt 0.1 0.8979592
vt 0.1 0.9183673
vt 0.08 0.9183673

# Normal
vn 0 0 -1

# Mesh description
g zona1_mesh_0008

# Faces
f 1/1/1 2/2/1 3/3/1 4/4/1
f 5/5/1 6/6/1 7/7/1 8/8/1
f 9/9/1 10/10/1 11/11/1 12/12/1
f 13/10/1 14/13/1 15/14/1 16/11/1
f 17/2/1 18/5/1 19/8/1 20/3/1
f 21/5/1 22/6/1 23/7/1 24/8/1
f 25/1/1 26/2/1 27/3/1 28/4/1
f 29/15/1 30/16/1 31/17/1 32/18/1
f 33/15/1 34/16/1 35/17/1 36/18/1
f 37/15/1 38/16/1 39/17/1 40/18/1
f 41/15/1 42/16/1 43/17/1 44/18/1
f 45/15/1 46/16/1 47/17/1 48/18/1
f 49/15/1 50/16/1 51/17/1 52/18/1
f 53/19/1 54/20/1 55/21/1 56/22/1
f 57/23/1 58/24/1 59/25/1 60/26/1
f 61/19/1 62/20/1 63/21/1 64/22/1
f 65/27/1 66/28/1 67/29/1 68/30/1

